<svg width="75" height="75" viewBox="0 0 75 75" fill="none" xmlns="http://www.w3.org/2000/svg">
<path d="M45.6207 25.1221L33.5907 39.5508L29.3793 34.5016C28.9856 34.0291 28.5026 33.6388 27.958 33.353C27.4134 33.0671 26.8178 32.8913 26.2053 32.8356C25.5928 32.7799 24.9753 32.8455 24.388 33.0284C23.8008 33.2114 23.2554 33.5082 22.7829 33.9019C22.3104 34.2957 21.9201 34.7787 21.6342 35.3233C21.3484 35.8678 21.1726 36.4634 21.1169 37.076C21.0612 37.6885 21.1267 38.306 21.3097 38.8932C21.4926 39.4804 21.7895 40.0258 22.1832 40.4984L29.9927 49.8733C30.4316 50.4015 30.9814 50.8267 31.603 51.1186C32.2246 51.4105 32.9029 51.562 33.5896 51.5625C34.2764 51.5629 34.9548 51.4122 35.5768 51.1211C36.1988 50.83 36.7491 50.4056 37.1888 49.878L52.8168 31.128C53.214 30.6558 53.5141 30.1099 53.6998 29.5215C53.8855 28.9331 53.9532 28.3139 53.899 27.6992C53.8448 27.0846 53.6698 26.4868 53.384 25.94C53.0982 25.3931 52.7072 24.9082 52.2335 24.5128C51.7598 24.1175 51.2127 23.8195 50.6236 23.6361C50.0345 23.4527 49.415 23.3875 48.8006 23.4441C48.1862 23.5007 47.589 23.6781 47.0433 23.966C46.4976 24.254 46.0142 24.6469 45.6207 25.1221Z" fill="white"/>
<path d="M37.5 0C30.0832 0 22.833 2.19934 16.6661 6.31989C10.4993 10.4404 5.69282 16.2971 2.85453 23.1494C0.016248 30.0016 -0.726377 37.5416 0.720569 44.8159C2.16751 52.0902 5.73904 58.772 10.9835 64.0165C16.228 69.261 22.9098 72.8325 30.1841 74.2794C37.4584 75.7264 44.9984 74.9837 51.8506 72.1455C58.7029 69.3072 64.5596 64.5007 68.6801 58.3339C72.8007 52.167 75 44.9168 75 37.5C74.9894 27.5576 71.0351 18.0255 64.0048 10.9952C56.9745 3.96487 47.4424 0.0105883 37.5 0ZM37.5 65.625C31.9374 65.625 26.4997 63.9755 21.8746 60.8851C17.2495 57.7947 13.6446 53.4021 11.5159 48.263C9.38719 43.1238 8.83022 37.4688 9.91543 32.0131C11.0006 26.5574 13.6793 21.546 17.6126 17.6126C21.546 13.6793 26.5574 11.0006 32.0131 9.91541C37.4688 8.8302 43.1238 9.38717 48.263 11.5159C53.4021 13.6446 57.7947 17.2495 60.8851 21.8746C63.9755 26.4997 65.625 31.9374 65.625 37.5C65.6169 44.9567 62.6511 52.1057 57.3784 57.3784C52.1057 62.6511 44.9567 65.6169 37.5 65.625Z" fill="white"/>
</svg>
