<svg width="33" height="29" viewBox="0 0 33 29" fill="none" xmlns="http://www.w3.org/2000/svg">
<path d="M24.523 1.69779L12.4931 16.1265L8.28164 11.0773C7.88789 10.6048 7.40493 10.2145 6.86034 9.92864C6.31574 9.64279 5.72017 9.467 5.10764 9.41131C4.49511 9.35563 3.87761 9.42113 3.29039 9.60409C2.70317 9.78705 2.15774 10.0839 1.68524 10.4776C1.21274 10.8714 0.822416 11.3543 0.536562 11.8989C0.250709 12.4435 0.0749219 13.0391 0.0192358 13.6516C-0.0364503 14.2642 0.0290561 14.8817 0.212015 15.4689C0.394974 16.0561 0.691802 16.6015 1.08555 17.074L8.895 26.449C9.33393 26.9772 9.88371 27.4023 10.5053 27.6943C11.127 27.9862 11.8052 28.1377 12.492 28.1382C13.1787 28.1386 13.8572 27.9879 14.4792 27.6968C15.1012 27.4057 15.6515 26.9813 16.0911 26.4536L31.7191 7.70365C32.1163 7.23151 32.4164 6.68558 32.6021 6.0972C32.7878 5.50881 32.8555 4.88954 32.8014 4.27493C32.7472 3.66031 32.5721 3.06245 32.2863 2.51564C32.0005 1.96883 31.6096 1.48383 31.1359 1.08849C30.6622 0.693139 30.1151 0.39522 29.526 0.211822C28.9368 0.0284239 28.3173 -0.036842 27.7029 0.0197684C27.0885 0.0763787 26.4913 0.253751 25.9457 0.541708C25.4 0.829666 24.9165 1.22254 24.523 1.69779Z" fill="#1132A7"/>
</svg>
